<?xml version="1.0" encoding="utf-8"?>
<!-- Generator: Adobe Illustrator 23.0.0, SVG Export Plug-In . SVG Version: 6.00 Build 0)  -->
<svg version="1.1" id="Layer_1" xmlns="http://www.w3.org/2000/svg" xmlns:xlink="http://www.w3.org/1999/xlink" x="0px" y="0px"
	 viewBox="0 0 416 150" style="enable-background:new 0 0 416 150;" xml:space="preserve">
<style type="text/css">
	.st0{fill:#FFFFFF;}
</style>
<path class="st0" d="M73.2,63h-0.4c-3.3-4.5-7.6-7.7-12.8-9.5c-5.2-1.9-10.8-2.8-16.9-2.8c-6.7,0-12.7,1.4-17.9,4.1
	c-5.3,2.8-9.7,6.5-13.4,11.1c-3.6,4.6-6.5,9.9-8.5,15.9c-2,6-3,12.2-3,18.8c0,7.1,1.1,13.6,3.3,19.5c2.2,5.9,5.3,11,9.3,15.3
	c4.1,4.3,8.9,7.7,14.6,10c5.7,2.4,12,3.6,18.9,3.6c3.2,0,6.3-0.5,9.3-1.4c3-0.9,5.8-2.1,8.3-3.5c2.5-1.4,4.7-3,6.5-4.7
	c1.9-1.7,3.4-3.4,4.5-5.1h0.4v12.3h26.6V1H73.2V63z M69.4,117c-4,4.4-9.7,6.5-17,6.5c-7.3,0-13-2.2-17.1-6.5
	c-4-4.4-6.1-10.1-6.1-17.1c0-7.1,2-12.8,6.1-17.1c4.1-4.4,9.7-6.6,17.1-6.6c7.3,0,13,2.2,17,6.6c4.1,4.4,6.1,10.1,6.1,17.1
	C75.5,106.9,73.5,112.6,69.4,117z M150,11.7c3.3,3.3,4.9,7.2,4.9,11.8c0,4.6-1.6,8.6-4.9,11.8c-3.3,3.3-7.2,4.9-11.8,4.9
	c-4.6,0-8.6-1.6-11.9-4.9c-3.3-3.3-4.9-7.2-4.9-11.8c0-4.6,1.6-8.6,4.9-11.8c3.3-3.3,7.2-4.9,11.9-4.9C142.8,6.8,146.7,8.4,150,11.7
	z M123.7,53h28.9v93.7h-28.9V53z M198.2,11.7c3.3,3.3,4.9,7.2,4.9,11.8c0,4.6-1.6,8.6-4.9,11.8c-3.3,3.3-7.2,4.9-11.8,4.9
	c-4.6,0-8.6-1.6-11.9-4.9c-3.3-3.3-4.9-7.2-4.9-11.8c0-4.6,1.6-8.6,4.9-11.8c3.3-3.3,7.2-4.9,11.9-4.9
	C190.9,6.8,194.9,8.4,198.2,11.7z M171.9,53h28.9v93.7h-28.9V53z M287.1,53h29.1l-37,93.7h-30.6L209.8,53H241l23.7,63.6h0.4
	L287.1,53z M415.6,99.9c0-7.5-1-14.2-3.1-20.2c-2-6-5-11.2-8.7-15.5c-3.8-4.3-8.5-7.6-13.9-9.9c-5.5-2.3-11.6-3.5-18.2-3.5
	c-7.2,0-14,1.2-20.3,3.5c-6.3,2.3-11.9,5.6-16.6,9.9s-8.4,9.5-11.1,15.5c-2.7,6-4,12.8-4,20.2c0,7.5,1.3,14.2,4,20.2
	c2.7,6,6.4,11.2,11.1,15.5s10.2,7.6,16.6,9.9c6.4,2.3,13.1,3.5,20.3,3.5c7.6,0,14.9-1.6,22-4.8c7.1-3.2,12.9-7.7,17.6-13.7
	l-20.3-14.8c-2.4,3.3-5.3,6.1-8.6,8.2c-3.3,2.1-7.3,3.2-12.1,3.2c-5.6,0-10.4-1.6-14.2-4.9c-3.9-3.3-6.3-7.7-7.5-13.2h67.1V99.9z
	 M348.6,89.2c0.1-2.3,0.7-4.5,1.6-6.6c1-2.1,2.3-4,4.1-5.6c1.7-1.6,3.8-2.9,6.3-3.9c2.4-1,5.3-1.6,8.5-1.6c5.3,0,9.6,1.7,12.9,5.2
	c3.3,3.5,4.9,7.7,4.8,12.5H348.6z"/>
</svg>
